<svg width="284" height="284" viewBox="0 0 284 284" xmlns="http://www.w3.org/2000/svg">
  <g transform="translate(0, 50)"> <!-- Ajusta o alinhamento vertical -->
    <path d="M0 175.496V0H66.7157C107.347 0 130.923 17.0482 130.923 46.381C130.923 68.4433 117.881 80.9788 97.8162 85.2408C121.142 88.2493 137.194 100.534 137.194 125.605C137.194 156.191 113.116 175.496 69.9762 175.496H0ZM67.7189 29.5836H37.6216V72.204H67.7189C83.7708 72.204 93.3016 63.9306 93.3016 50.8938C93.3016 37.8569 84.0216 29.5836 67.7189 29.5836ZM70.227 101.286H37.6216V145.661H70.227C88.2854 145.661 98.5686 137.388 98.5686 123.85C98.5686 109.559 88.0346 101.286 70.227 101.286Z" fill="#222222"/>
    <path d="M218.971 177C176.082 177 150.249 151.177 150.249 111.314C150.249 71.2011 176.584 45.1275 216.463 45.1275C255.088 45.1275 281.172 69.1955 281.674 107.052C281.674 110.813 281.423 115.075 280.67 119.086H187.118V120.841C187.87 139.143 199.658 150.174 217.466 150.174C231.762 150.174 241.795 143.907 244.804 131.873H279.667C275.654 156.943 253.332 177 218.971 177ZM187.87 96.0212H246.058C243.55 80.2266 232.765 71.4518 216.714 71.4518C201.414 71.4518 189.877 80.728 187.87 96.0212Z" fill="#222222"/>
  </g>
</svg>